<?xml version="1.0" encoding="UTF-8" standalone="no"?>
<svg
   xmlns:dc="http://purl.org/dc/elements/1.1/"
   xmlns:cc="http://creativecommons.org/ns#"
   xmlns:rdf="http://www.w3.org/1999/02/22-rdf-syntax-ns#"
   xmlns:svg="http://www.w3.org/2000/svg"
   xmlns="http://www.w3.org/2000/svg"
   xmlns:sodipodi="http://sodipodi.sourceforge.net/DTD/sodipodi-0.dtd"
   xmlns:inkscape="http://www.inkscape.org/namespaces/inkscape"
   sodipodi:docname="unused.svg"
   inkscape:version="1.0 (4035a4fb49, 2020-05-01)"
   id="svg8"
   version="1.1"
   viewBox="0 0 210 297"
   height="297mm"
   width="210mm">
  <defs
     id="defs2" />
  <sodipodi:namedview
     inkscape:window-maximized="0"
     inkscape:window-y="176"
     inkscape:window-x="232"
     inkscape:window-height="930"
     inkscape:window-width="1492"
     showgrid="false"
     inkscape:document-rotation="0"
     inkscape:current-layer="layer1"
     inkscape:document-units="mm"
     inkscape:cy="560"
     inkscape:cx="400"
     inkscape:zoom="0.35"
     inkscape:pageshadow="2"
     inkscape:pageopacity="0.0"
     borderopacity="1.0"
     bordercolor="#666666"
     pagecolor="#ffffff"
     id="base" />
  <metadata
     id="metadata5">
    <rdf:RDF>
      <cc:Work
         rdf:about="">
        <dc:format>image/svg+xml</dc:format>
        <dc:type
           rdf:resource="http://purl.org/dc/dcmitype/StillImage" />
        <dc:title></dc:title>
        <cc:license
           rdf:resource="http://creativecommons.org/licenses/by-sa/4.0/" />
      </cc:Work>
      <cc:License
         rdf:about="http://creativecommons.org/licenses/by-sa/4.0/">
        <cc:permits
           rdf:resource="http://creativecommons.org/ns#Reproduction" />
        <cc:permits
           rdf:resource="http://creativecommons.org/ns#Distribution" />
        <cc:requires
           rdf:resource="http://creativecommons.org/ns#Notice" />
        <cc:requires
           rdf:resource="http://creativecommons.org/ns#Attribution" />
        <cc:permits
           rdf:resource="http://creativecommons.org/ns#DerivativeWorks" />
        <cc:requires
           rdf:resource="http://creativecommons.org/ns#ShareAlike" />
      </cc:License>
    </rdf:RDF>
  </metadata>
  <g
     id="layer1"
     inkscape:groupmode="layer"
     inkscape:label="图层 1">
    <flowRoot
       xml:space="preserve"
       id="flowRoot3414"
       style="font-style:normal;font-variant:normal;font-weight:normal;font-stretch:normal;font-size:10.6667px;line-height:1.25;font-family:'Noto Sans SC';-inkscape-font-specification:'Noto Sans SC';letter-spacing:0px;word-spacing:0px;writing-mode:lr-tb;display:inline;opacity:1;fill:#000000;fill-opacity:1;stroke:none"
       transform="matrix(0.26458333,0,0,0.26458333,-66.301414,-152.11074)"><flowRegion
         id="flowRegion3416"
         style="writing-mode:lr-tb;fill:#000000;fill-opacity:1"><rect
           id="rect3418"
           width="398.20691"
           height="61.714478"
           x="434"
           y="620"
           style="writing-mode:lr-tb;fill:#000000;fill-opacity:1" /></flowRegion><flowPara
         id="flowPara1659"
         style="font-style:normal;font-variant:normal;font-weight:normal;font-stretch:normal;font-size:16px;font-family:'Comic Neue';-inkscape-font-specification:'Comic Neue';fill:#000000;fill-opacity:1"><flowSpan
   style="font-style:normal;font-variant:normal;font-weight:normal;font-stretch:normal;font-size:16px;font-family:'Noto Serif SC';-inkscape-font-specification:'Noto Serif SC';fill:#000000;fill-opacity:1"
   id="flowSpan1287">完善实验功能 </flowSpan>Improve the experimental functions</flowPara></flowRoot>
    <path
       style="display:inline;opacity:1;fill:#000000;fill-opacity:1;stroke:none;stroke-width:0.0107083;stroke-linecap:round;stroke-linejoin:miter;stroke-miterlimit:4;stroke-dasharray:none;stroke-dashoffset:0;stroke-opacity:1;paint-order:normal"
       id="path3472"
       d="m 42.63257,22.32776 c 0.10038,0.0787 0.19172,0.16905 0.28256,0.25847 0.0544,0.0537 0.10467,0.11066 0.15322,0.16958 0.16097,0.1978 -0.11874,0.4254 -0.2797,0.22761 v 0 c -0.0395,-0.0492 -0.0821,-0.0955 -0.12665,-0.14032 -0.0917,-0.0904 -0.18433,-0.17947 -0.28442,-0.26027 -0.18029,-0.18032 0.0747,-0.43529 0.255,-0.255 z"
       inkscape:connector-curvature="0" />
    <path
       style="display:inline;opacity:1;fill:#000000;fill-opacity:1;stroke:none;stroke-width:0.0107083;stroke-linecap:round;stroke-linejoin:miter;stroke-miterlimit:4;stroke-dasharray:none;stroke-dashoffset:0;stroke-opacity:1;paint-order:normal"
       id="path3478"
       d="m 40.86229,23.32477 c 0.18542,0 0.37084,0 0.55625,0 0.34122,0 0.68242,0 1.02363,0 0.32508,0 0.65015,0 0.97522,0 0.27137,0 0.54273,0 0.81409,0 0.17067,0.002 0.34122,-4.2e-4 0.51174,-0.009 0.0944,-0.009 0.18888,-0.0199 0.28364,-0.0264 0.0401,-0.002 0.0801,-0.003 0.12019,-0.005 0.25495,-0.005 0.26166,0.35579 0.008,0.36053 v 0 c -0.0341,6.4e-4 -0.0681,0.001 -0.10211,0.003 -0.0971,0.008 -0.19368,0.0191 -0.2907,0.0269 -0.17642,0.009 -0.35288,0.0126 -0.52956,0.009 -0.27137,0 -0.54272,0 -0.81408,0 -0.32508,0 -0.65014,0 -0.97524,0 -0.34121,0 -0.68241,0 -1.02362,0 -0.18542,0 -0.37084,0 -0.55624,0 -0.25501,0 -0.25501,-0.3606 0,-0.3606 z"
       inkscape:connector-curvature="0" />
    <path
       style="display:inline;opacity:1;fill:#000000;fill-opacity:1;stroke:none;stroke-width:0.0107083;stroke-linecap:round;stroke-linejoin:miter;stroke-miterlimit:4;stroke-dasharray:none;stroke-dashoffset:0;stroke-opacity:1;paint-order:normal"
       id="path3480"
       d="m 41.86398,24.10609 c 0.14281,0 0.28574,0 0.42862,0 0.2429,0 0.48579,0 0.72867,0 0.20514,0 0.41026,0 0.6154,0 0.11571,0 0.23154,0 0.34733,0 0.056,0 0.11228,0 0.16833,0 0.25499,0 0.25499,0.3606 0,0.3606 v 0 c -0.056,0 -0.11228,0 -0.16833,0 -0.1157,0 -0.23156,0 -0.34733,0 -0.20514,0 -0.41026,0 -0.6154,0 -0.24288,0 -0.48577,0 -0.72867,0 -0.14282,0 -0.28575,0 -0.42862,0 -0.25499,0 -0.25499,-0.3606 0,-0.3606 z"
       inkscape:connector-curvature="0" />
    <path
       style="display:inline;opacity:1;fill:#000000;fill-opacity:1;stroke:none;stroke-width:0.0107083;stroke-linecap:round;stroke-linejoin:miter;stroke-miterlimit:4;stroke-dasharray:none;stroke-dashoffset:0;stroke-opacity:1;paint-order:normal"
       id="path3482"
       d="m 41.90646,24.76721 c 0.13975,0 0.27938,0 0.41908,0 0.20924,0 0.41848,0 0.62772,0 0.15557,0 0.31119,0 0.46677,0 0.11139,0 0.22283,0 0.33423,0 0.0874,0.003 0.17408,0.0126 0.26126,0.0162 0.0442,0.002 0.0884,0.003 0.13258,0.003 0.25499,0.002 0.25155,0.36302 -0.003,0.36059 v 0 c -0.0498,-4.5e-4 -0.0995,-10e-4 -0.14928,-0.003 -0.0804,-0.005 -0.16061,-0.0108 -0.24106,-0.0162 -0.11138,0 -0.22281,0 -0.33422,0 -0.15557,0 -0.31119,0 -0.46678,0 -0.20923,0 -0.41847,0 -0.62772,0 -0.13977,0 -0.27939,0 -0.41909,0 -0.25499,0 -0.25499,-0.36061 0,-0.36061 z"
       inkscape:connector-curvature="0" />
    <path
       style="display:inline;opacity:1;fill:#000000;fill-opacity:1;stroke:none;stroke-width:0.0107083;stroke-linecap:round;stroke-linejoin:miter;stroke-miterlimit:4;stroke-dasharray:none;stroke-dashoffset:0;stroke-opacity:1;paint-order:normal"
       id="path3490"
       d="m 41.99119,25.65426 c -0.002,0.14425 0.003,0.2885 0.009,0.43267 0.005,0.0995 0.0182,0.19851 0.0263,0.29785 8.8e-4,0.005 0.002,0.009 0.002,0.0143 0.039,0.25198 -0.31731,0.30719 -0.35636,0.0551 v 0 c -0.002,-0.0126 -0.003,-0.0266 -0.005,-0.0401 -0.009,-0.10404 -0.0213,-0.20782 -0.0271,-0.31215 -0.005,-0.14911 -0.0126,-0.2982 -0.009,-0.44745 0,-0.255 0.36061,-0.255 0.36061,0 z"
       inkscape:connector-curvature="0" />
    <path
       style="display:inline;opacity:1;fill:#000000;fill-opacity:1;stroke:none;stroke-width:0.0107083;stroke-linecap:round;stroke-linejoin:miter;stroke-miterlimit:4;stroke-dasharray:none;stroke-dashoffset:0;stroke-opacity:1;paint-order:normal"
       id="path3492"
       d="m 41.95693,25.40835 c 0.1297,-0.0275 0.26322,-0.0296 0.39519,-0.0341 0.22231,-0.005 0.4447,-0.005 0.66705,-0.005 0.1811,-1.6e-4 0.36221,0 0.54333,1.1e-4 0.12521,5e-5 0.25059,1.1e-4 0.3759,1.1e-4 0.0635,0.008 0.15037,-0.0108 0.21197,0.003 0.0275,0.005 0.0538,0.0162 0.081,0.0242 0.0338,0.0344 0.0771,0.0615 0.10113,0.10318 0.0776,0.13492 -0.0322,0.36162 -0.0807,0.49022 -0.0726,0.1766 -0.13618,0.35683 -0.194,0.53884 -0.0213,0.0729 -0.0108,0.0371 -0.0315,0.10705 -0.0723,0.24454 -0.41808,0.14247 -0.34582,-0.10221 v 0 c 0.0212,-0.0718 0.0108,-0.0338 0.0336,-0.11408 0.0598,-0.18809 0.12522,-0.37444 0.20035,-0.55706 0.0126,-0.0338 0.0479,-0.12647 0.0615,-0.16437 0.005,-0.0144 0.009,-0.0309 0.0143,-0.0462 0.002,-0.005 0.003,-0.018 0.008,-0.0144 0.0108,0.009 0.0144,0.0253 0.0204,0.0381 0.0242,0.018 0.0485,0.035 0.0728,0.0527 0.0108,0.001 0.0208,0.002 0.0312,0.003 0.005,4.8e-4 -0.0108,-0.002 -0.0162,-0.002 -0.0557,-0.002 -0.11157,0.002 -0.16743,0 -0.1254,-10e-6 -0.25072,-2e-5 -0.37606,-10e-5 -0.18087,-1.1e-4 -0.36173,-2.7e-4 -0.54259,-1.1e-4 -0.21844,3.1e-4 -0.43695,5e-4 -0.65537,0.005 -0.11623,0.003 -0.23402,0.005 -0.34814,0.0295 -0.2515,0.0419 -0.31079,-0.31378 -0.0592,-0.35571 z"
       inkscape:connector-curvature="0" />
    <path
       style="display:inline;opacity:1;fill:#000000;fill-opacity:1;stroke:none;stroke-width:0.0107083;stroke-linecap:round;stroke-linejoin:miter;stroke-miterlimit:4;stroke-dasharray:none;stroke-dashoffset:0;stroke-opacity:1;paint-order:normal"
       id="path3494"
       d="m 41.98314,26.45408 c 0.14336,0 0.2866,0 0.4299,0 0.19883,0 0.39764,0 0.59643,0 0.12988,0.002 0.25941,1.1e-4 0.38896,-0.009 0.0683,-0.0108 0.13761,-0.0162 0.20599,-0.0275 0.0686,-0.0126 0.13814,-0.0185 0.20789,-0.0218 0.0677,-0.002 0.13546,-0.002 0.20327,-0.002 0.0236,0 0.0471,4e-5 0.0708,1.1e-4 0.25497,4.3e-4 0.25434,0.36105 -6.4e-4,0.36059 v 0 c -0.0234,-3e-5 -0.0465,-8e-5 -0.0699,-8e-5 -0.0625,3e-5 -0.12521,5e-5 -0.18763,0.002 -0.0571,0.002 -0.11408,0.008 -0.17031,0.0182 -0.0782,0.0108 -0.15684,0.0197 -0.23515,0.0307 -0.13761,0.009 -0.27534,0.0108 -0.41328,0.009 -0.19882,0 -0.39761,0 -0.59644,0 -0.14336,0 -0.28661,0 -0.42991,0 -0.25497,0 -0.25497,-0.36061 0,-0.36061 z"
       inkscape:connector-curvature="0" />
    <path
       style="display:inline;fill:none;stroke:#000000;stroke-width:0.264583px;stroke-linecap:butt;stroke-linejoin:miter;stroke-opacity:1"
       d="m 45.33476,24.86612 c 1.31811,0.89357 2.21068,4.64492 -0.5868,6.05294"
       id="path3496"
       inkscape:connector-curvature="0"
       sodipodi:nodetypes="cc" />
    <path
       sodipodi:nodetypes="ccc"
       inkscape:connector-curvature="0"
       id="path3498"
       d="m 44.88877,29.64701 -0.14081,1.27205 1.25131,0.32691"
       style="display:inline;fill:none;fill-opacity:1;stroke:#000000;stroke-width:0.264583px;stroke-linecap:butt;stroke-linejoin:miter;stroke-opacity:1" />
    <flowRoot
       xml:space="preserve"
       id="flowRoot3500"
       style="font-style:normal;font-variant:normal;font-weight:normal;font-stretch:normal;font-size:10.6667px;line-height:1.25;font-family:'Noto Sans SC';-inkscape-font-specification:'Noto Sans SC';letter-spacing:0px;word-spacing:0px;writing-mode:lr-tb;display:inline;fill:#000000;fill-opacity:1;stroke:none"
       transform="matrix(0.26458333,0,0,0.26458333,-65.248354,-149.36391)"><flowRegion
         id="flowRegion3502"
         style="writing-mode:lr-tb"><rect
           id="rect3504"
           width="15.026009"
           height="18.561573"
           x="401.10632"
           y="671.2923"
           style="writing-mode:lr-tb" /></flowRegion><flowPara
         id="flowPara3506"
         style="font-style:normal;font-variant:normal;font-weight:bold;font-stretch:normal;font-size:16px;font-family:'Comic Neue';-inkscape-font-specification:'Comic Neue, Bold';font-variant-ligatures:normal;font-variant-caps:normal;font-variant-numeric:normal;font-feature-settings:normal;text-align:start;writing-mode:lr-tb;text-anchor:start">W</flowPara></flowRoot>
    <flowRoot
       xml:space="preserve"
       id="flowRoot3508"
       style="font-style:normal;font-variant:normal;font-weight:normal;font-stretch:normal;font-size:10.6667px;line-height:1.25;font-family:'Noto Sans SC';-inkscape-font-specification:'Noto Sans SC';text-align:start;letter-spacing:0px;word-spacing:0px;writing-mode:lr-tb;text-anchor:start;display:inline;fill:#000000;fill-opacity:1;stroke:none"
       transform="matrix(0.26458333,0,0,0.26458333,-65.646604,-150.11972)"><flowRegion
         id="flowRegion3510"
         style="text-align:start;writing-mode:lr-tb;text-anchor:start"><rect
           id="rect3512"
           width="404.81097"
           height="68.335815"
           x="430"
           y="654.25"
           style="text-align:start;writing-mode:lr-tb;text-anchor:start" /></flowRegion><flowPara
         id="flowPara3516"
         style="font-style:normal;font-variant:normal;font-weight:normal;font-stretch:normal;font-size:16px;font-family:'Noto Serif SC';-inkscape-font-specification:'Noto Serif SC, Normal';font-variant-ligatures:normal;font-variant-caps:normal;font-variant-numeric:normal;font-feature-settings:normal;text-align:start;writing-mode:lr-tb;text-anchor:start">翻译和本地化 <flowSpan
   id="flowSpan1661"
   style="font-style:normal;font-variant:normal;font-weight:normal;font-stretch:normal;font-family:'Comic Neue';-inkscape-font-specification:'Comic Neue'">Translate and localize</flowSpan></flowPara></flowRoot>
    <path
       sodipodi:nodetypes="ccccccccc"
       inkscape:connector-curvature="0"
       id="path1281"
       d="m 41.70003,11.24361 0.64887,0.64888 v 1.45996 l -3.18313,4.80338 7.97561,1.4e-4 -3.18321,-4.80367 v -1.45961 l 0.64887,-0.64908 z"
       style="display:inline;fill:none;stroke:#000000;stroke-width:0.346406;stroke-linecap:butt;stroke-linejoin:round;stroke-miterlimit:4;stroke-dasharray:none;stroke-opacity:1" />
    <path
       sodipodi:nodetypes="cccccc"
       inkscape:connector-curvature="0"
       id="path2491-2"
       d="m 40.35775,39.66072 -0.53841,1.69214 1.48391,-0.41177 4.74618,-4.51079 -1.25122,-1.13121 z"
       style="display:inline;fill:none;stroke:#000000;stroke-width:0.425844;stroke-linecap:butt;stroke-linejoin:miter;stroke-miterlimit:4;stroke-dasharray:none;stroke-opacity:1" />
    <flowRoot
       transform="matrix(0.26458333,0,0,0.26458333,-65.646604,-141.12389)"
       style="font-style:normal;font-variant:normal;font-weight:normal;font-stretch:normal;font-size:10.6667px;line-height:1.25;font-family:'Noto Sans SC';-inkscape-font-specification:'Noto Sans SC';text-align:start;letter-spacing:0px;word-spacing:0px;writing-mode:lr-tb;text-anchor:start;display:inline;fill:#000000;fill-opacity:1;stroke:none"
       id="flowRoot1316"
       xml:space="preserve"><flowRegion
         style="text-align:start;writing-mode:lr-tb;text-anchor:start"
         id="flowRegion1310"><rect
           style="text-align:start;writing-mode:lr-tb;text-anchor:start"
           y="654.25"
           x="430"
           height="68.335815"
           width="404.81097"
           id="rect1308" /></flowRegion><flowPara
         style="font-style:normal;font-variant:normal;font-weight:normal;font-stretch:normal;font-size:16px;font-family:'Noto Serif SC';-inkscape-font-specification:'Noto Serif SC, Normal';font-variant-ligatures:normal;font-variant-caps:normal;font-variant-numeric:normal;font-feature-settings:normal;text-align:start;writing-mode:lr-tb;text-anchor:start"
         id="flowPara1314">帮助设计界面/制作自己的主题 </flowPara><flowPara
         id="flowPara1318"
         style="font-style:normal;font-variant:normal;font-weight:normal;font-stretch:normal;font-size:16px;font-family:'Comic Neue';-inkscape-font-specification:'Comic Neue';font-variant-ligatures:normal;font-variant-caps:normal;font-variant-numeric:normal;font-feature-settings:normal;text-align:start;writing-mode:lr-tb;text-anchor:start">Help designer design the interface or make your own theme</flowPara></flowRoot>
    <rect
       y="49.967442"
       x="38.534645"
       height="5.4810114"
       width="7.195168"
       id="rect1369"
       style="display:inline;opacity:1;fill:none;fill-opacity:1;fill-rule:nonzero;stroke:#000000;stroke-width:0.331449;stroke-linecap:round;stroke-linejoin:round;stroke-miterlimit:4;stroke-dasharray:none;stroke-dashoffset:0;stroke-opacity:1;paint-order:fill markers stroke" />
    <path
       sodipodi:nodetypes="cc"
       inkscape:connector-curvature="0"
       id="path1371"
       d="m 42.0032,55.44828 v 1.86354"
       style="display:inline;fill:none;stroke:#000000;stroke-width:0.331449;stroke-linecap:butt;stroke-linejoin:miter;stroke-miterlimit:4;stroke-dasharray:none;stroke-opacity:1" />
    <path
       sodipodi:nodetypes="cc"
       inkscape:connector-curvature="0"
       id="path1373"
       d="m 37.72802,57.31182 h 8.98885"
       style="display:inline;fill:none;stroke:#000000;stroke-width:0.331449;stroke-linecap:butt;stroke-linejoin:miter;stroke-miterlimit:4;stroke-dasharray:none;stroke-opacity:1" />
    <path
       sodipodi:nodetypes="cc"
       inkscape:connector-curvature="0"
       id="path1375"
       d="m 39.42403,51.17309 h 5.33623"
       style="display:inline;fill:none;stroke:#000000;stroke-width:0.331449;stroke-linecap:butt;stroke-linejoin:miter;stroke-miterlimit:4;stroke-dasharray:none;stroke-opacity:1" />
    <flowRoot
       transform="matrix(0.26458333,0,0,0.26458333,-65.911194,-124.19054)"
       style="font-style:normal;font-variant:normal;font-weight:normal;font-stretch:normal;font-size:10.6667px;line-height:1.25;font-family:'Noto Sans SC';-inkscape-font-specification:'Noto Sans SC';text-align:start;letter-spacing:0px;word-spacing:0px;writing-mode:lr-tb;text-anchor:start;display:inline;fill:#000000;fill-opacity:1;stroke:none"
       id="flowRoot1387"
       xml:space="preserve"><flowRegion
         style="text-align:start;writing-mode:lr-tb;text-anchor:start"
         id="flowRegion1379"><rect
           style="text-align:start;writing-mode:lr-tb;text-anchor:start"
           y="654.25"
           x="430"
           height="63.335815"
           width="421.81097"
           id="rect1377" /></flowRegion><flowPara
         id="flowPara1383"
         style="font-style:normal;font-variant:normal;font-weight:normal;font-stretch:normal;font-size:16px;font-family:'Comic Neue';-inkscape-font-specification:'Comic Neue';font-variant-ligatures:normal;font-variant-caps:normal;font-variant-numeric:normal;font-feature-settings:normal;text-align:start;writing-mode:lr-tb;text-anchor:start"><flowSpan
           id="flowSpan1381"
           style="font-style:normal;font-variant:normal;font-weight:normal;font-stretch:normal;font-size:16px;font-family:'Noto Serif SC';-inkscape-font-specification:'Noto Serif SC, Normal';font-variant-ligatures:normal;font-variant-caps:normal;font-variant-numeric:normal;font-feature-settings:normal;text-align:start;writing-mode:lr-tb;text-anchor:start">加入维护者团队 </flowSpan></flowPara><flowPara
         style="font-style:normal;font-variant:normal;font-weight:normal;font-stretch:normal;font-size:16px;font-family:'Comic Neue';-inkscape-font-specification:'Comic Neue';font-variant-ligatures:normal;font-variant-caps:normal;font-variant-numeric:normal;font-feature-settings:normal;text-align:start;writing-mode:lr-tb;text-anchor:start"
         id="flowPara1385">Join the maintainer group</flowPara></flowRoot>
    <path
       style="display:inline;opacity:0.493;fill:#d4be63;fill-opacity:1;stroke:#000000;stroke-width:0.359989;stroke-linecap:butt;stroke-linejoin:miter;stroke-miterlimit:4;stroke-dasharray:0.719979, 0.359989;stroke-dashoffset:0;stroke-opacity:1"
       d="m 146.16444,75.366855 c 1.68784,4.447103 1.98438,7.148225 2.13848,10.985755 0.0886,2.206021 0.25312,5.335242 -2.13848,11.700354 H 57.217409 c -21.05522,-2.180125 -19.44386,-21.03367 3e-5,-22.686109 z"
       id="path850"
       inkscape:connector-curvature="0"
       sodipodi:nodetypes="cscccc" />
    <flowRoot
       xml:space="preserve"
       id="flowRoot2290"
       style="font-style:normal;font-variant:normal;font-weight:normal;font-stretch:normal;font-size:16px;line-height:1.25;font-family:'Noto Sans SC';-inkscape-font-specification:'Noto Sans SC';letter-spacing:0px;word-spacing:0px;display:inline;fill:#000000;fill-opacity:1;stroke:none"
       transform="matrix(0.21337129,0,0,0.21337129,-157.45566,64.522847)"><flowRegion
         id="flowRegion2292"
         style="fill:#000000"><rect
           id="rect2294"
           width="390.74042"
           height="50.245102"
           x="1012.5"
           y="53.214287"
           style="fill:#000000" /></flowRegion><flowPara
         id="flowPara2296"
         style="font-size:26.6667px;fill:#000000">录入手指大小和指纹</flowPara></flowRoot>
    <flowRoot
       xml:space="preserve"
       id="flowRoot2298"
       style="font-style:normal;font-variant:normal;font-weight:normal;font-stretch:normal;font-size:16px;line-height:1.25;font-family:'Noto Sans SC';-inkscape-font-specification:'Noto Sans SC';letter-spacing:0px;word-spacing:0px;display:inline;opacity:0.562;fill:#000000;fill-opacity:1;stroke:none"
       transform="matrix(0.21337129,0,0,0.21337129,-116.07244,65.169462)"><flowRegion
         id="flowRegion2300"
         style="fill:#000000"><rect
           id="rect2302"
           width="136.37057"
           height="20.203053"
           x="1062.6804"
           y="59.360237"
           style="fill:#000000" /></flowRegion><flowPara
         id="flowPara2304"
         style="fill:#000000">自&quot;<flowSpan
   style="font-style:normal;font-variant:normal;font-weight:normal;font-stretch:normal;font-family:Hack;-inkscape-font-specification:Hack;fill:#000000"
   id="flowSpan2306">wde-conf</flowSpan>&quot;</flowPara></flowRoot>
    <flowRoot
       xml:space="preserve"
       id="flowRoot2322"
       style="font-style:normal;font-variant:normal;font-weight:normal;font-stretch:normal;font-size:13.3333px;line-height:1.25;font-family:'Noto Sans SC';-inkscape-font-specification:'Noto Sans SC';letter-spacing:0px;word-spacing:0px;display:inline;opacity:0.779;fill:#000000;fill-opacity:1;stroke:none"
       transform="matrix(0.21337129,0,0,0.21337129,-116.07244,65.169462)"><flowRegion
         id="flowRegion2324"
         style="font-size:13.3333px;fill:#000000"><rect
           id="rect2326"
           width="390.24557"
           height="119.19801"
           x="823.77942"
           y="85.624199"
           style="font-size:13.33333302px;fill:#000000" /></flowRegion><flowPara
         style="fill:#000000"
         id="flowPara952">为了改善触摸屏体验，我们需要了解您的手指大小。如果您的触摸屏可进行指纹识别，那么可以使用更高级的功能。</flowPara></flowRoot>
    <path
       style="display:inline;opacity:0.849;fill:none;stroke:#000000;stroke-width:0.370716;stroke-linecap:butt;stroke-linejoin:miter;stroke-miterlimit:4;stroke-dasharray:0.741431, 0.370716;stroke-dashoffset:0;stroke-opacity:1"
       d="M 59.590669,91.257859 H 143.11146"
       id="path2330"
       inkscape:connector-curvature="0" />
    <flowRoot
       xml:space="preserve"
       id="flowRoot2340"
       style="font-style:normal;font-variant:normal;font-weight:normal;font-stretch:normal;font-size:16px;line-height:1.25;font-family:'Noto Sans SC';-inkscape-font-specification:'Noto Sans SC';letter-spacing:0px;word-spacing:0px;display:inline;fill:#000000;fill-opacity:1;stroke:none"
       transform="matrix(0.21337129,0,0,0.21337129,-116.07244,65.169462)"><flowRegion
         id="flowRegion2342"
         style="fill:#000000"><rect
           id="rect2344"
           width="169.95816"
           height="29.546963"
           x="826.05225"
           y="127.54553"
           style="fill:#000000" /></flowRegion><flowPara
         id="flowPara2346"
         style="fill:#000000">现在进行并了解更多</flowPara></flowRoot>
    <flowRoot
       xml:space="preserve"
       id="flowRoot2348"
       style="font-style:normal;font-variant:normal;font-weight:normal;font-stretch:normal;font-size:16px;line-height:1.25;font-family:'Noto Sans SC';-inkscape-font-specification:'Noto Sans SC';letter-spacing:0px;word-spacing:0px;display:inline;fill:#000000;fill-opacity:1;stroke:none"
       transform="matrix(0.21337129,0,0,0.21337129,-46.884896,60.750936)"><flowRegion
         id="flowRegion2350"
         style="fill:#000000"><rect
           id="rect2352"
           width="67.680222"
           height="27.274118"
           x="826.30481"
           y="148.75873"
           style="fill:#000000" /></flowRegion><flowPara
         id="flowPara2354"
         style="fill:#000000">不再提示</flowPara></flowRoot>
    <path
       style="display:inline;fill:#c8ab37;fill-opacity:1;stroke:none;stroke-width:0.149475px;stroke-linecap:butt;stroke-linejoin:miter;stroke-opacity:1"
       d="m 50.733559,92.172309 -5.81883,-6.032375 c -2.04524,-2.045221 1.33863,-4.320061 2.82933,-2.829336 l 5.97899,5.978987"
       id="path2356"
       inkscape:connector-curvature="0"
       sodipodi:nodetypes="czzc" />
    <path
       style="display:inline;fill:none;stroke:#008000;stroke-width:0.295349px;stroke-linecap:butt;stroke-linejoin:miter;stroke-opacity:1"
       d="m 53.271989,91.274513 h 2.66344"
       id="path2368"
       inkscape:connector-curvature="0" />
    <path
       style="display:inline;fill:none;stroke:#008000;stroke-width:0.295349px;stroke-linecap:butt;stroke-linejoin:miter;stroke-opacity:1"
       d="m 54.814669,90.153767 1.12076,1.120746 -1.13395,1.133936"
       id="path2370"
       inkscape:connector-curvature="0" />
    <path
       sodipodi:nodetypes="cscccc"
       inkscape:connector-curvature="0"
       id="path879-5"
       d="m 146.14082,111.9161 c 0,0 2.56348,9.21345 2.52684,14.08453 -0.0342,4.55692 -2.52684,13.50709 -2.52684,13.50709 H 57.238109 c -21.04474,-2.65154 -19.43417,-25.58187 10e-6,-27.59162 z"
       style="display:inline;opacity:0.493;fill:#22c222;fill-opacity:1;stroke:#000000;stroke-width:0.359989;stroke-linecap:butt;stroke-linejoin:miter;stroke-miterlimit:4;stroke-dasharray:0.719979, 0.359989;stroke-dashoffset:0;stroke-opacity:1" />
    <path
       style="display:inline;fill:none;stroke:#000000;stroke-width:0.530897px;stroke-linecap:butt;stroke-linejoin:miter;stroke-opacity:1"
       d="m 43.615279,126.0359 h 4.36536"
       id="path2368-3"
       inkscape:connector-curvature="0"
       sodipodi:nodetypes="cc" />
    <path
       style="display:inline;fill:none;stroke:#000000;stroke-width:0.382289px;stroke-linecap:butt;stroke-linejoin:miter;stroke-opacity:1"
       d="m 46.604999,124.50614 1.37564,1.52976 -1.39182,1.54775"
       id="path2370-6"
       inkscape:connector-curvature="0" />
    <path
       style="display:inline;fill:none;stroke:#000000;stroke-width:0.57558;stroke-linecap:butt;stroke-linejoin:miter;stroke-miterlimit:4;stroke-dasharray:none;stroke-opacity:1"
       d="m 48.745039,121.7783 -3.41579,2.53181 v 3.56332 l 3.41579,2.19307"
       id="path905"
       inkscape:connector-curvature="0"
       sodipodi:nodetypes="cccc" />
    <path
       style="display:inline;fill:none;stroke:#000000;stroke-width:0.582898;stroke-linecap:butt;stroke-linejoin:miter;stroke-miterlimit:4;stroke-dasharray:1.1658, 0.582898;stroke-dashoffset:0.578242;stroke-opacity:1"
       d="m 48.745039,121.7783 c 1.1858,2.49294 2.32987,4.99537 0,8.2882"
       id="path907"
       inkscape:connector-curvature="0"
       sodipodi:nodetypes="cc" />
    <path
       style="display:inline;fill:none;stroke:#000000;stroke-width:0.57558;stroke-linecap:butt;stroke-linejoin:miter;stroke-miterlimit:4;stroke-dasharray:none;stroke-opacity:1"
       d="m 51.316199,124.40389 c 0.38185,0.97545 1.30594,1.64942 0,3.56331"
       id="path909"
       inkscape:connector-curvature="0"
       sodipodi:nodetypes="cc" />
    <path
       sodipodi:nodetypes="cc"
       inkscape:connector-curvature="0"
       id="path911"
       d="m 52.159439,122.80979 c 0.71142,0.79642 2.34337,4.21159 0.0844,6.65774"
       style="display:inline;fill:none;stroke:#000000;stroke-width:0.57558;stroke-linecap:butt;stroke-linejoin:miter;stroke-miterlimit:4;stroke-dasharray:none;stroke-opacity:1" />
    <path
       style="display:inline;fill:none;stroke:#000000;stroke-width:0.57558;stroke-linecap:butt;stroke-linejoin:miter;stroke-miterlimit:4;stroke-dasharray:none;stroke-opacity:1"
       d="m 53.002669,121.21567 c 0.84143,0.47803 3.69305,6.1545 0.16864,9.47088"
       id="path913"
       inkscape:connector-curvature="0"
       sodipodi:nodetypes="cc" />
    <path
       style="display:inline;fill:none;stroke:#ffff00;stroke-width:0.380415;stroke-linecap:butt;stroke-linejoin:miter;stroke-miterlimit:4;stroke-dasharray:none;stroke-opacity:1"
       d="m 54.904619,130.49131 v 1.85218"
       id="path915"
       inkscape:connector-curvature="0" />
    <circle
       cy="133.28085"
       cx="54.914436"
       id="circle917"
       style="display:inline;fill:#ffff00;stroke-width:0.284774;stroke-miterlimit:4;stroke-dasharray:none"
       r="0.23335977" />
    <flowRoot
       xml:space="preserve"
       id="flowRoot928"
       style="font-style:normal;font-variant:normal;font-weight:normal;font-stretch:normal;font-size:16px;line-height:1.25;font-family:'Noto Sans SC';-inkscape-font-specification:'Noto Sans SC';letter-spacing:0px;word-spacing:0px;display:inline;fill:#000000;fill-opacity:1;stroke:none"
       transform="matrix(0.21337129,0,0,0.21337129,-117.44413,62.730935)"><flowRegion
         id="flowRegion930"
         style="fill:#000000"><rect
           id="rect932"
           width="225.71428"
           height="53.571426"
           x="822.85712"
           y="234.28572"
           style="fill:#000000" /></flowRegion><flowPara
         id="flowPara934"
         style="font-size:26.6667px;fill:#000000;stroke:none">调节音效</flowPara></flowRoot>
    <flowRoot
       xml:space="preserve"
       id="flowRoot936"
       style="font-style:normal;font-variant:normal;font-weight:normal;font-stretch:normal;font-size:16px;line-height:1.25;font-family:Hack;-inkscape-font-specification:Hack;letter-spacing:0px;word-spacing:0px;display:inline;opacity:0.562;fill:#000000;fill-opacity:1;stroke:none"
       transform="matrix(0.21337129,0,0,0.21337129,-116.68209,64.102612)"><flowRegion
         id="flowRegion938"
         style="font-style:normal;font-variant:normal;font-weight:normal;font-stretch:normal;font-family:Hack;-inkscape-font-specification:Hack;fill:#000000"><rect
           id="rect940"
           width="202.85715"
           height="20.714285"
           x="927.85712"
           y="239.28572"
           style="font-style:normal;font-variant:normal;font-weight:normal;font-stretch:normal;font-family:Hack;-inkscape-font-specification:Hack;fill:#000000" /></flowRegion><flowPara
         id="flowPara942"
         style="font-style:normal;font-variant:normal;font-weight:normal;font-stretch:normal;font-family:Hack;-inkscape-font-specification:Hack;fill:#000000">自&quot;wde-sound&quot;</flowPara></flowRoot>
    <flowRoot
       xml:space="preserve"
       id="flowRoot944"
       style="font-style:normal;font-variant:normal;font-weight:normal;font-stretch:normal;font-size:16px;line-height:1.25;font-family:'Noto Sans SC';-inkscape-font-specification:'Noto Sans SC';letter-spacing:0px;word-spacing:0px;display:inline;opacity:0.779;fill:#000000;fill-opacity:1;stroke:none"
       transform="matrix(0.21337129,0,0,0.21337129,-116.07244,65.169462)"><flowRegion
         id="flowRegion946"
         style="fill:#000000"><rect
           id="rect948"
           width="408.10162"
           height="61.619312"
           x="817.21338"
           y="254.82475"
           style="fill:#000000" /></flowRegion><flowPara
         id="flowPara950"
         style="font-size:13.3333px;line-height:1.25;fill:#000000">该软件可通过外部的录音设备来录制您输出设备的声音，并由此来调节到最佳音效。如果您使用耳机，那么该软件可能无法通过上述方式调节音效。</flowPara></flowRoot>
    <path
       inkscape:connector-curvature="0"
       id="path956"
       d="M 58.620749,133.07216 H 142.14154"
       style="display:inline;opacity:0.849;fill:none;stroke:#000000;stroke-width:0.370716;stroke-linecap:butt;stroke-linejoin:miter;stroke-miterlimit:4;stroke-dasharray:0.741431, 0.370716;stroke-dashoffset:0;stroke-opacity:1" />
    <flowRoot
       xml:space="preserve"
       id="flowRoot958"
       style="font-style:normal;font-variant:normal;font-weight:normal;font-stretch:normal;font-size:16px;line-height:1.25;font-family:'Noto Sans SC';-inkscape-font-specification:'Noto Sans SC';letter-spacing:0px;word-spacing:0px;display:inline;fill:#000000;fill-opacity:1;stroke:none"
       transform="matrix(0.21337129,0,0,0.21337129,-116.50354,64.307317)"><flowRegion
         id="flowRegion960"
         style="fill:#000000"><rect
           id="rect962"
           width="161.11932"
           height="20.203051"
           x="822.76923"
           y="328.06082"
           style="fill:#000000" /></flowRegion><flowPara
         id="flowPara964"
         style="fill:#000000">使用上述方式调节</flowPara></flowRoot>
    <flowRoot
       xml:space="preserve"
       id="flowRoot966"
       style="font-style:normal;font-variant:normal;font-weight:normal;font-stretch:normal;font-size:16px;line-height:1.25;font-family:'Noto Sans SC';-inkscape-font-specification:'Noto Sans SC';letter-spacing:0px;word-spacing:0px;display:inline;fill:#000000;fill-opacity:1;stroke:none"
       transform="matrix(0.21337129,0,0,0.21337129,-113.27046,65.492769)"><flowRegion
         id="flowRegion968"
         style="fill:#000000"><rect
           id="rect970"
           width="74.246208"
           height="22.728432"
           x="1136.4216"
           y="324.0202"
           style="fill:#000000" /></flowRegion><flowPara
         id="flowPara972"
         style="fill:#000000">手动调节</flowPara></flowRoot>
  </g>
</svg>
