<?xml version="1.0" encoding="UTF-8" standalone="no"?>
<!-- Created with Inkscape (http://www.inkscape.org/) -->

<svg
   xmlns:dc="http://purl.org/dc/elements/1.1/"
   xmlns:cc="http://creativecommons.org/ns#"
   xmlns:rdf="http://www.w3.org/1999/02/22-rdf-syntax-ns#"
   xmlns:svg="http://www.w3.org/2000/svg"
   xmlns="http://www.w3.org/2000/svg"
   xmlns:sodipodi="http://sodipodi.sourceforge.net/DTD/sodipodi-0.dtd"
   xmlns:inkscape="http://www.inkscape.org/namespaces/inkscape"
   width="793.70081"
   height="1122.5197"
   viewBox="0 0 210 297"
   version="1.1"
   id="svg866"
   inkscape:version="0.92.4 (5da689c313, 2019-01-14)"
   sodipodi:docname="绘图-5.svg"
   inkscape:export-filename="./绘图-5.svg.png"
   inkscape:export-xdpi="146.35001"
   inkscape:export-ydpi="146.35001">
  <defs
     id="defs860" />
  <sodipodi:namedview
     id="base"
     pagecolor="#569058"
     bordercolor="#666666"
     borderopacity="1.0"
     inkscape:pageopacity="1"
     inkscape:pageshadow="2"
     inkscape:zoom="0.98994949"
     inkscape:cx="387.52038"
     inkscape:cy="629.32148"
     inkscape:document-units="mm"
     inkscape:current-layer="layer1"
     showgrid="false"
     inkscape:window-width="1920"
     inkscape:window-height="1001"
     inkscape:window-x="-9"
     inkscape:window-y="-9"
     inkscape:window-maximized="1"
     inkscape:snap-nodes="true"
     units="px" />
  <metadata
     id="metadata863">
    <rdf:RDF>
      <cc:Work
         rdf:about="">
        <dc:format>image/svg+xml</dc:format>
        <dc:type
           rdf:resource="http://purl.org/dc/dcmitype/StillImage" />
        <dc:title />
      </cc:Work>
    </rdf:RDF>
  </metadata>
  <g
     inkscape:label="Layer 1"
     inkscape:groupmode="layer"
     id="layer1">
    <ellipse
       style="display:inline;fill:#cbb66f;fill-opacity:1;stroke:#000000;stroke-width:1.76199996;stroke-miterlimit:4;stroke-dasharray:none;stroke-dashoffset:0;stroke-opacity:1;paint-order:stroke markers fill"
       id="path4811"
       ry="24.856577"
       rx="24.856686"
       cy="54.242146"
       cx="102.98082"
       inkscape:export-xdpi="99.777283"
       inkscape:export-ydpi="99.777283" />
    <circle
       style="display:inline;opacity:1;fill:#000000;fill-opacity:1;stroke:none;stroke-width:11.6808176;stroke-linecap:round;stroke-miterlimit:4;stroke-dasharray:35.04245146, 35.04245146;stroke-dashoffset:0;stroke-opacity:0.97448982"
       id="path867"
       cx="113.97883"
       cy="45.916462"
       inkscape:export-xdpi="99.777283"
       inkscape:export-ydpi="99.777283"
       r="3.3196018" />
    <circle
       r="3.3196018"
       inkscape:export-ydpi="99.777283"
       inkscape:export-xdpi="99.777283"
       cy="45.916462"
       cx="92.344055"
       id="circle2484"
       style="display:inline;opacity:1;fill:#000000;fill-opacity:1;stroke:none;stroke-width:11.6808176;stroke-linecap:round;stroke-miterlimit:4;stroke-dasharray:35.04245146, 35.04245146;stroke-dashoffset:0;stroke-opacity:0.97448982" />
    <path
       style="display:inline;fill:none;stroke:#000000;stroke-width:1.9353025;stroke-linecap:round;stroke-linejoin:miter;stroke-miterlimit:4;stroke-dasharray:none;stroke-dashoffset:1.56321263;stroke-opacity:1;paint-order:stroke fill markers"
       d="m 95.965906,65.228815 c 7.711904,5.68507 10.842754,2.17597 15.507424,0"
       id="path916"
       inkscape:connector-curvature="0"
       sodipodi:nodetypes="cc" />
    <path
       style="fill:#cbb66f;fill-opacity:1;stroke:#000000;stroke-width:0.60071176px;stroke-linecap:butt;stroke-linejoin:miter;stroke-opacity:1"
       d="m 95.99359,78.1196 0.0207,6.497689 c 0.0024,0.751451 -1.462661,1.653204 -2.138457,1.621181 -10.488385,-0.496998 -12.28432,0.480434 -15.885593,2.305617 -0.604272,0.306254 -3.986271,2.281311 -4.312023,3.121871 -3.824603,9.868882 -4.840211,22.747532 -5.636316,34.081522 -0.134553,1.9156 -0.08358,3.89992 -0.200455,4.74002 -0.257305,1.84948 -0.350156,14.07447 -0.942364,26.15919 l 5.375801,0.21051 c 0.512569,-8.1539 0.408825,-14.71437 1.315875,-25.41171 -0.163457,-2.32848 -0.125741,-3.08164 0.193888,-5.90065 0.578502,-8.48261 2.606295,-19.77328 3.6779,-30.020706 0.501068,-1.40171 1.343,-1.067033 1.305267,-0.307877 0,0 0.604302,16.686403 0.192872,25.014773 -0.05336,1.08006 -0.236278,2.14985 -0.344628,3.2258 -0.93588,9.29345 -2.638451,27.89684 -2.638451,27.89684 h 50.820064 c 0,0 -1.15343,-17.26776 -1.64814,-25.90659 -0.0546,-0.95296 -0.11077,-1.90598 -0.14562,-2.85987 -0.32606,-8.92569 -0.5936,-26.788335 -0.5936,-26.788335 0.48309,-0.836282 0.27555,-2.134133 1.46006,0.183303 0.29539,11.076002 2.56956,19.608432 3.98261,29.567722 0.13737,2.27904 1.14714,3.82475 0.76795,4.65365 1.48203,10.87481 0.51268,17.46334 1.03035,26.65194 l 5.47722,-0.15883 c 0.0294,-8.86127 0.59978,-17.55008 -1.22012,-27.33523 -0.10429,-1.33579 -0.45959,-2.52182 -0.81583,-4.10935 -0.69669,-10.94255 -0.83717,-21.99624 -3.92736,-32.460501 -0.20846,-0.705915 -3.32598,-2.732129 -4.67243,-3.356318 -5.32762,-2.469804 -10.79879,-2.523478 -15.79887,-3.062438 -1.01903,-0.109842 -0.82596,-0.977897 -0.81668,-1.582809 l 0.1027,-6.696054"
       id="path2501"
       inkscape:connector-curvature="0"
       sodipodi:nodetypes="csssssscccccsssccssccccccccssssc" />
    <path
       style="fill:#cbb66f;fill-opacity:1;stroke:#000000;stroke-width:0.60100001;stroke-linecap:butt;stroke-linejoin:miter;stroke-miterlimit:4;stroke-dasharray:none;stroke-opacity:1"
       d="m 75.977638,151.34885 -1.770121,38.4828 c 0.169581,1.51233 0.106199,2.79169 -0.228123,3.80011 l -1.710347,28.49125 -10.394345,4.34693 2.645832,1.88989 14.741072,-2.2e-4 3.92611,-33.57857 c -0.241225,-2.16444 0.268542,-2.82689 0.478171,-4.08962 l 2.210303,-27.92956 28.21592,-0.47248 5.16388,31.24452 c 0.69384,1.43972 1.36958,2.87944 1.07789,4.31916 l 5.94796,30.50655 h 13.22917 l -1.88988,-4.91368 -5.48066,-0.18899 -2.09768,-25.93792 c -0.57747,-1.28941 -1.38183,-2.3519 -0.50905,-5.09155 l -2.73618,-40.87862"
       id="path824"
       inkscape:connector-curvature="0"
       sodipodi:nodetypes="cccccccccccccccccccc" />
    <path
       style="fill:#5caec9;fill-opacity:1;stroke:#000000;stroke-width:0.26458332px;stroke-linecap:butt;stroke-linejoin:miter;stroke-opacity:1"
       d="m 96.083394,80.244412 0.133636,4.276312 c 0.02462,0.787696 -0.831913,1.897065 -1.603619,1.737252 -3.174068,-0.657319 -11.005464,-0.629642 -16.036171,1.403165 -1.767741,0.714309 -5.011303,3.407686 -5.011303,3.407686 -2.386255,5.838907 -3.461727,12.071053 -4.075861,18.441593 l 6.080384,0.46773 c 1.058046,-4.57608 0.938564,-9.77004 2.071336,-14.465967 0.336357,-1.380254 1.195645,-1.674359 1.202713,-1.236121 l 0.07018,25.281288 c -0.112481,2.06692 -0.224963,3.15389 -0.337444,4.51926 l -2.405425,27.12786 h 50.64757 l -1.46998,-27.26149 -0.40091,-4.54358 -0.66817,-23.25245 c 0,0 0.0918,-1.34731 0.66817,-1.403167 0.47958,-0.04647 0.80181,1.002262 0.80181,1.002262 0.25565,4.847645 -0.132,9.266425 1.60362,15.100725 h 6.81537 c -0.0157,-6.45005 -1.62977,-11.986724 -2.80633,-17.773422 -0.43231,-2.126255 -1.46415,-2.687754 -6.1472,-4.409945 -4.6838,-1.350896 -9.44162,-2.464972 -14.56619,-2.405427 -0.5608,-0.05407 -0.80781,-0.526528 -0.8018,-1.336347 v -4.944486 z"
       id="path828"
       inkscape:connector-curvature="0"
       sodipodi:nodetypes="csssccccscccccccscccsccccc" />
    <path
       style="fill:#77869a;fill-opacity:1;stroke:#000000;stroke-width:0.26458332px;stroke-linecap:butt;stroke-linejoin:miter;stroke-opacity:1"
       d="m 75.977638,151.34885 h 50.819922 l 2.84827,36.03805 -0.11209,4.84057 0.50905,5.09155 0.73697,9.53366 h -8.88244 l -1.56344,-8.99962 -1.07789,-4.31916 c -2.93407,-13.94248 -2.98185,-30.90443 -15.87951,-30.90443 -15.462374,-0.29519 -18.135037,12.98244 -19.710593,28.06195 l -0.478171,4.08962 -1.54486,10.37074 h -8.315475 l 0.652012,-11.52002 0.228124,-3.80011 z"
       id="path2290"
       inkscape:connector-curvature="0"
       sodipodi:nodetypes="ccccccccccccccccc" />
    <path
       style="fill:#cbb66f;fill-opacity:1;stroke:#000000;stroke-width:0.80000001;stroke-linecap:butt;stroke-linejoin:round;stroke-miterlimit:4;stroke-dasharray:none;stroke-opacity:1"
       d="m 78.298275,49.01916 c 0.362595,-1.672178 -4.872697,-1.30164 -6.342604,2.535107 -0.847402,2.211885 -2.62218,9.18632 6.794344,10.233728 -0.263552,0.197664 -2.135073,-10.961166 -0.45174,-12.768835 z"
       id="path827"
       inkscape:connector-curvature="0"
       sodipodi:nodetypes="cscc" />
    <path
       style="fill:none;stroke:#000000;stroke-width:0.26458332px;stroke-linecap:butt;stroke-linejoin:miter;stroke-opacity:1"
       d="M 73.632755,52.715651 H 76.03818"
       id="path831"
       inkscape:connector-curvature="0" />
    <path
       style="fill:none;stroke:#000000;stroke-width:0.26458332px;stroke-linecap:butt;stroke-linejoin:miter;stroke-opacity:1"
       d="m 74.902284,52.782469 -0.200451,4.610399"
       id="path833"
       inkscape:connector-curvature="0"
       sodipodi:nodetypes="cc" />
    <path
       style="fill:none;stroke:#000000;stroke-width:0.26458332px;stroke-linecap:butt;stroke-linejoin:miter;stroke-opacity:1"
       d="m 73.18055,57.357433 3.325352,0.169068"
       id="path835"
       inkscape:connector-curvature="0"
       sodipodi:nodetypes="cc" />
    <path
       sodipodi:nodetypes="cscc"
       inkscape:connector-curvature="0"
       id="path837"
       d="m 127.6332,49.680618 c -0.3626,-1.672178 4.8727,-1.30164 6.3426,2.535107 0.8474,2.211885 2.62218,9.18632 -6.79434,10.233728 0.26355,0.197664 2.13507,-10.961166 0.45174,-12.768835 z"
       style="fill:#cbb66f;fill-opacity:1;stroke:#000000;stroke-width:0.80000001;stroke-linecap:butt;stroke-linejoin:round;stroke-miterlimit:4;stroke-dasharray:none;stroke-opacity:1" />
    <path
       inkscape:connector-curvature="0"
       id="path839"
       d="m 132.29872,53.377109 h -2.40543"
       style="fill:none;stroke:#000000;stroke-width:0.26458332px;stroke-linecap:butt;stroke-linejoin:miter;stroke-opacity:1" />
    <path
       sodipodi:nodetypes="cc"
       inkscape:connector-curvature="0"
       id="path841"
       d="m 131.02919,53.443927 0.20045,4.610399"
       style="fill:none;stroke:#000000;stroke-width:0.26458332px;stroke-linecap:butt;stroke-linejoin:miter;stroke-opacity:1" />
    <path
       sodipodi:nodetypes="cc"
       inkscape:connector-curvature="0"
       id="path843"
       d="m 132.75092,58.018891 -3.32535,0.169068"
       style="fill:none;stroke:#000000;stroke-width:0.26458332px;stroke-linecap:butt;stroke-linejoin:miter;stroke-opacity:1" />
    <path
       style="fill:#cbb66f;fill-opacity:1;stroke:#000000;stroke-width:0.85275054;stroke-linecap:butt;stroke-linejoin:miter;stroke-miterlimit:4;stroke-dasharray:none;stroke-opacity:1"
       d="m 152.36619,25.523879 c 7.51867,-5.017945 22.8684,-4.997385 31.26063,-3.05e-4 8.35264,4.973511 10.68072,16.26702 10.02136,25.123637 -0.60096,8.072352 -4.03133,15.536776 -10.04579,21.654206 -7.34692,7.472725 -23.61306,6.993095 -31.2362,1.57e-4 -6.34201,-5.817711 -9.33199,-14.661495 -9.41407,-22.723441 -0.0864,-8.480056 1.73629,-18.930112 9.41407,-24.054254 z"
       id="path836"
       inkscape:connector-curvature="0"
       sodipodi:nodetypes="sssssss" />
    <circle
       r="3.3196018"
       inkscape:export-ydpi="99.777283"
       inkscape:export-xdpi="99.777283"
       cy="37.109615"
       cx="179.59477"
       id="circle838"
       style="display:inline;opacity:1;fill:#000000;fill-opacity:1;stroke:none;stroke-width:11.6808176;stroke-linecap:round;stroke-miterlimit:4;stroke-dasharray:35.04245146, 35.04245146;stroke-dashoffset:0;stroke-opacity:0.97448982" />
    <circle
       style="display:inline;opacity:1;fill:#000000;fill-opacity:1;stroke:none;stroke-width:11.6808176;stroke-linecap:round;stroke-miterlimit:4;stroke-dasharray:35.04245146, 35.04245146;stroke-dashoffset:0;stroke-opacity:0.97448982"
       id="circle840"
       cx="157.96031"
       cy="37.109615"
       inkscape:export-xdpi="99.777283"
       inkscape:export-ydpi="99.777283"
       r="3.3196018" />
    <path
       sodipodi:nodetypes="cc"
       inkscape:connector-curvature="0"
       id="path842"
       d="m 161.05379,65.228815 c 7.71193,5.68507 11.88221,2.64844 15.50745,0"
       style="display:inline;fill:none;stroke:#000000;stroke-width:1.9353025;stroke-linecap:round;stroke-linejoin:miter;stroke-miterlimit:4;stroke-dasharray:none;stroke-dashoffset:1.56321263;stroke-opacity:1;paint-order:stroke fill markers" />
    <path
       style="fill:none;stroke:#000000;stroke-width:1.19999985;stroke-linecap:butt;stroke-linejoin:miter;stroke-opacity:1;stroke-miterlimit:4;stroke-dasharray:none"
       d="m 150.6235,33.834068 c 4.11904,-2.888148 8.35982,-5.274111 14.45759,0"
       id="path840"
       inkscape:connector-curvature="0"
       sodipodi:nodetypes="cc" />
    <path
       sodipodi:nodetypes="cc"
       inkscape:connector-curvature="0"
       id="path844"
       d="m 171.7903,33.834068 c 4.11904,-2.888148 8.35982,-5.274111 14.45759,0"
       style="fill:none;stroke:#000000;stroke-width:1.19999981;stroke-linecap:butt;stroke-linejoin:miter;stroke-miterlimit:4;stroke-dasharray:none;stroke-opacity:1" />
    <path
       style="fill:#000000;fill-opacity:1;stroke:#000000;stroke-width:0.26458332px;stroke-linecap:butt;stroke-linejoin:miter;stroke-opacity:1"
       d="m 79.563988,44.511896 c 0,-3.96875 0.09449,-3.874257 0.09449,-3.874257 0,0 9.203359,-14.552082 24.568442,-14.552082 13.82986,0 17.88669,11.952469 23.43454,15.402529 l -1.13393,4.630209 c -4.18075,-4.765048 -7.37977,-9.824612 -13.89063,-13.890625 0,0 -9.07143,-7.276042 -21.166666,2.740327 L 79.374999,44.984365 Z"
       id="path846"
       inkscape:connector-curvature="0"
       sodipodi:nodetypes="ccscccscc" />
  </g>
</svg>
